<svg xmlns="http://www.w3.org/2000/svg" width="290" height="80" viewBox="0 0 290 80">
  <g id="Group_66121" data-name="Group 66121" transform="translate(-22701 -5873)">
    <path id="Path_95704" data-name="Path 95704" d="M327.03,89.746A24.127,24.127,0,0,0,311.391,73.72c-16.124-5.255-31.965,7.736-34.874,23.392a30.6,30.6,0,0,0,4.881,22.943c27.139,34.084,75.352-12.057,88.991,10.692Q366.7,119.62,352.54,119.718c-13.355.949-29.136,7.317-43.277,6.874-12.276-.385-24.6-7.106-26.862-20.076-4.7-26.96,33.266-42.487,44.629-16.77m-26.941-7.073c-18.836,7.065-18.21,34.456,5.64,38.731,16.823,3.015,38.982-9.087,52.368-6.065q-9.791-5.13-24.079-1.852c-9.807,1.843-26.428,5.922-35.12.226C286.553,105.626,290.493,91.445,300.089,82.674Zm-2.261,14.492a11.5,11.5,0,0,1,6.133-9.693,13.184,13.184,0,0,0-7.468,9.405c-1.412,7.03,1.744,11.248,6.587,13.333,12.158,5.234,26.382-3.038,35.989-2.532-10.087-5.321-23.389,3.117-33.935.019-4.355-1.279-7.565-4.414-7.306-10.533Z" transform="translate(22427.279 5810.466)" fill="#00d3c5" fill-rule="evenodd"/>
    <rect id="Rectangle_19959" data-name="Rectangle 19959" width="290" height="80" transform="translate(22701 5873)" fill="none"/>
    <path id="Path_95706" data-name="Path 95706" d="M-17.207-22.676-21.094,0h-6.113l-1.738-9.277L-30.527,0h-6.406L-40.82-22.676h5.37l1.914,12.324,1.72-12.324h5.605l1.72,12.324,1.914-12.324ZM-3.32,0H-8.242V-.879Q-8.867.313-11.816.313q-4.551,0-4.551-3.555V-7.793a3.685,3.685,0,0,1,1.1-2.656,18.436,18.436,0,0,1,4.443-2.832q1.934-.977,1.934-1.562V-18.2q0-1.113-.957-1.113-1.094,0-1.094,2.715,0,.488.059,1.445.078.957.078,1.445h-5.371v-4.531q0-4.59,6.641-4.59,6.211,0,6.211,4.785ZM-8.887-4.238v-5.84Q-10.8-9.609-10.8-8.359v4.121q0,1.035,1,1.035Q-8.887-3.2-8.887-4.238Zm21.27-18.437L8.316,0H1.6L-2.5-22.676H3.1L5.02-9.277l1.866-13.4ZM26.172-9.609H18.711v5.293q0,1.152.957,1.152.938,0,.938-1.152v-4.57h5.566v4.609q0,4.59-6.543,4.59-6.484,0-6.484-4.785V-18.047q0-4.785,6.484-4.785,6.543,0,6.543,4.59Zm-5.566-3.4v-5.2q0-1.113-.938-1.113-.957,0-.957,1.113v5.2Zm6.777,3.887h5.566v4.8q0,1.152.938,1.152t.938-2.207q0-2.871-1.152-3.711a27.912,27.912,0,0,1-5.254-3.193A3.725,3.725,0,0,1,27.52-15v-3.047q0-4.785,6.484-4.785,6.309,0,6.309,4.59v4.473h-5.43L35-16.484q0-2.832-1.035-2.832T32.93-17.539a6.532,6.532,0,0,0,.459,2.773q.459.938,5.107,3.223A4.309,4.309,0,0,1,40.43-7.871v3.4q0,4.785-6.592,4.785-6.455,0-6.455-4.59Z" transform="translate(22871 5920)" fill="#08d3c5"/>
    <path id="Path_95707" data-name="Path 95707" d="M-13.34.039h-6.152q-1-1.191-1-6.758v-.039l.039-1.68q.059-3.5.059-3.574,0-1.426-1.914-1.426V0h-6.152V-28.008h7.6a8.412,8.412,0,0,1,4.521,1.191,4.108,4.108,0,0,1,1.924,3.77v3.359q0,3.262-3.809,4.414,3.828.9,3.828,4.629l-.1,3.066Q-14.492-.859-13.34.039Zm-7.07-18.363v-4.621q0-1.469-1.895-1.469v7.578Q-20.41-16.836-20.41-18.324Zm7.734,13.852V-18.047q0-4.785,6.621-4.785a8.9,8.9,0,0,1,4.5,1.113A3.727,3.727,0,0,1,.391-18.242V-4.277q0,4.59-6.445,4.59Q-12.676.313-12.676-4.473Zm7.5.156V-18.2q0-1.113-.957-1.113-.977,0-.977,1.113V-4.316q0,1.152.977,1.152Q-5.176-3.164-5.176-4.316ZM6.169-.762,5.7,0H1.484V-28.008H7.051v6.016a5.464,5.464,0,0,1,3.466-.84,5.028,5.028,0,0,1,2.771.811,2.61,2.61,0,0,1,1.263,2.334V-3.4A3.1,3.1,0,0,1,13.043-.684a6.424,6.424,0,0,1-3.623,1A5.8,5.8,0,0,1,6.169-.762ZM8.984-4.238V-18.281q0-1.035-.957-1.035a.872.872,0,0,0-.977,1V-4.238q0,1.035.977,1.035Q8.984-3.2,8.984-4.238Zm6.66-.234V-18.047q0-4.785,6.621-4.785a8.9,8.9,0,0,1,4.5,1.113,3.727,3.727,0,0,1,1.943,3.477V-4.277q0,4.59-6.445,4.59Q15.645.313,15.645-4.473Zm7.5.156V-18.2q0-1.113-.957-1.113-.977,0-.977,1.113V-4.316q0,1.152.977,1.152Q23.145-3.164,23.145-4.316Z" transform="translate(22801 5920)" fill="#fff"/>
  </g>
</svg>
